<?xml version="1.0" encoding="iso-8859-1"?>
<!-- Uploaded to: SVG Repo, www.svgrepo.com, Generator: SVG Repo Mixer Tools -->
<svg fill="#000000" version="1.1" id="Layer_1" xmlns="http://www.w3.org/2000/svg" xmlns:xlink="http://www.w3.org/1999/xlink" 
	 viewBox="0 0 512.009 512.009" xml:space="preserve">
<g>
	<g>
		
			<rect x="243.741" y="56.088" transform="matrix(0.9231 -0.3846 0.3846 0.9231 -4.2401 106.3062)" width="39.842" height="15.332"/>
	</g>
</g>
<g>
	<g>
		
			<rect x="264.776" y="97.309" transform="matrix(0.0385 -0.9993 0.9993 0.0385 144.8101 384.9572)" width="15.331" height="39.842"/>
	</g>
</g>
<g>
	<g>
		
			<rect x="211.948" y="12.192" transform="matrix(0.6763 -0.7366 0.7366 0.6763 60.4253 177.2258)" width="39.841" height="15.331"/>
	</g>
</g>
<g>
	<g>
		<path d="M229.297,307.956v-35.784H217.91V100.953l-69.834-61.929h-23.817v233.148h-11.386v35.784H98.366v204.054h145.436V307.956
			H229.297z M142.256,54.356l60.323,53.493v164.325h-62.988V54.356H142.256z M213.965,287.504v20.452h-85.761c0,0,0-20.452,0-20.452
			H213.965z M228.471,496.678H113.698v-16.672h114.773V496.678z M228.471,464.675H113.698V323.287h114.773V464.675z"/>
	</g>
</g>
<g>
	<g>
		<rect x="146.432" y="199.493" width="15.332" height="20.931"/>
	</g>
</g>
<g>
	<g>
		<rect x="146.432" y="101.596" width="15.332" height="88.453"/>
	</g>
</g>
<g>
	<g>
		<path d="M268.207,294.824v217.185h145.436V294.824H268.207z M398.312,496.678H283.539V342.158h114.773V496.678z M398.312,326.827
			H283.539v-16.672h114.773V326.827z"/>
	</g>
</g>
<g>
	<g>
		<path d="M364.105,169.877c-9.963,0-17.259,4.108-23.228,9.005c-6.32-5.224-13.176-9.005-23.187-9.005
			c-18.456,0-33.471,15.193-33.471,33.868c0.001,8.489,2.578,13.701,4.283,17.152l0.106,0.215
			c7.156,14.498,43.301,44.697,47.4,48.094l4.878,4.042l4.889-4.03c6.749-5.562,40.748-34.032,47.469-48.216l0.178-0.373
			c1.677-3.528,4.211-8.86,4.211-16.884C397.631,185.07,382.591,169.877,364.105,169.877z M379.573,214.047l-0.186,0.391
			c-3.647,7.696-23.815,26.384-38.478,38.854c-14.583-12.458-34.698-31.153-38.555-38.965l-0.108-0.221
			c-1.446-2.926-2.695-5.454-2.695-10.361c0-10.396,7.968-18.538,18.139-18.538c7.03,0,11.052,3.057,17.956,9.548l5.31,4.992
			l5.255-5.052c6.542-6.292,11.106-9.487,17.894-9.487c10.202,0,18.194,8.142,18.194,18.537
			C382.299,208.312,380.975,211.097,379.573,214.047z"/>
	</g>
</g>
</svg>