<?xml version="1.0" encoding="iso-8859-1"?>
<!-- Uploaded to: SVG Repo, www.svgrepo.com, Generator: SVG Repo Mixer Tools -->
<svg height="800px" width="800px" version="1.1" id="Layer_1" xmlns="http://www.w3.org/2000/svg" xmlns:xlink="http://www.w3.org/1999/xlink" 
	 viewBox="0 0 511.999 511.999" xml:space="preserve">
<g>
	<path style="fill:#BBDCE3;" d="M403.11,40.026c-23.086,0-41.198,25.741-41.198,25.741s-17.085-25.741-41.208-25.741
		c-23.464,0-42.624,19.353-43.878,42.784c-0.706,13.237,3.562,23.312,9.574,32.435c12.014,18.229,64.54,62.117,75.59,62.117
		c11.279,0,63.337-43.727,75.431-62.117c6.025-9.166,10.28-19.199,9.571-32.435C445.737,59.379,426.575,40.026,403.11,40.026"/>
	<path style="fill:#BBDCE3;" d="M188.411,498.093H130.59c-36.261,0-65.658-29.395-65.658-65.658V192.137h189.136v240.297
		C254.069,468.696,224.672,498.093,188.411,498.093z"/>
</g>
<path style="fill:#DE5E88;" d="M229.732,192.137H89.27V42.946c0-20.499,20.667-34.542,39.726-26.995l82.392,32.63
	c11.071,4.385,18.343,15.086,18.343,26.995V192.137z"/>
<path d="M460.877,82.067C459.2,50.694,433.825,26.12,403.11,26.12c-17.381,0-31.76,9.889-41.097,18.665
	c-9.241-8.781-23.579-18.665-41.31-18.665c-30.714,0-56.087,24.575-57.764,55.948c-1.012,18.947,6.278,32.376,11.849,40.83
	c7.6,11.533,26.112,28.719,40.902,40.956c33.134,27.415,42.36,27.415,46.299,27.415c3.987,0,13.326,0,46.292-27.369
	c14.679-12.188,33.095-29.361,40.76-41.018C454.608,114.415,461.891,100.968,460.877,82.067z M425.799,107.605
	c-9.798,14.897-50.873,49.377-63.778,55.349c-13.014-6.054-54.258-40.561-64.01-55.361c-5.564-8.443-7.746-15.633-7.298-24.04
	c0.875-16.331,14.328-29.619,29.991-29.619c13.469,0,25.973,14.128,29.623,19.524c2.539,3.827,6.806,6.152,11.397,6.215
	c0.064,0.001,0.127,0.001,0.189,0.001c4.523,0,8.767-2.2,11.375-5.904c3.621-5.146,16.872-19.837,29.822-19.837
	c15.665,0,29.119,13.288,29.993,29.622C433.558,92.051,431.443,99.02,425.799,107.605z"/>
<path d="M254.069,178.23h-10.43V75.578c0-17.726-10.649-33.398-27.131-39.926L134.117,3.023c-13.24-5.246-28.173-3.595-39.947,4.406
	C82.393,15.431,75.363,28.71,75.363,42.946v135.282h-10.43c-7.679,0-13.907,6.228-13.907,13.907v240.299
	c0,43.871,35.693,79.564,79.565,79.564h57.82c43.873,0,79.565-35.693,79.565-79.564V192.137
	C267.976,184.456,261.749,178.23,254.069,178.23z M103.178,42.946c0-5.09,2.414-9.65,6.625-12.512
	c4.211-2.861,9.337-3.428,14.073-1.551l82.391,32.63c5.808,2.299,9.558,7.82,9.558,14.064V178.23H103.178L103.178,42.946
	L103.178,42.946z M240.162,432.436c0,28.536-23.215,51.75-51.751,51.75h-57.82c-28.536,0-51.751-23.214-51.751-51.75V206.044h10.43
	h140.461h10.43V432.436z"/>
<path d="M116.621,286.71c-7.679,0-13.907,6.228-13.907,13.907v108.47c0,7.679,6.228,13.907,13.907,13.907
	s13.907-6.228,13.907-13.907v-108.47C130.529,292.937,124.301,286.71,116.621,286.71z"/>
<path d="M129.459,253.804c-0.348-0.848-0.779-1.654-1.279-2.405c-0.501-0.766-1.085-1.476-1.724-2.115s-1.349-1.224-2.114-1.724
	c-0.751-0.499-1.558-0.932-2.406-1.279c-0.834-0.348-1.709-0.611-2.601-0.791c-1.794-0.363-3.644-0.363-5.438,0
	c-0.876,0.181-1.752,0.444-2.599,0.791c-0.836,0.348-1.642,0.78-2.393,1.279c-0.765,0.501-1.474,1.085-2.114,1.724
	s-1.224,1.349-1.738,2.115c-0.501,0.751-0.932,1.556-1.279,2.405c-0.348,0.836-0.612,1.711-0.793,2.601
	c-0.181,0.89-0.263,1.808-0.263,2.712c0,0.903,0.083,1.822,0.263,2.726c0.181,0.876,0.445,1.752,0.793,2.601
	c0.348,0.834,0.779,1.641,1.279,2.392c0.515,0.765,1.099,1.474,1.738,2.114c0.64,0.641,1.349,1.225,2.114,1.738
	c0.751,0.501,1.558,0.933,2.393,1.281c0.847,0.348,1.723,0.611,2.599,0.791c0.904,0.181,1.823,0.264,2.727,0.264
	c0.903,0,1.822-0.085,2.71-0.264c0.891-0.181,1.768-0.444,2.601-0.791c0.848-0.348,1.655-0.78,2.406-1.281
	c0.765-0.513,1.474-1.097,2.114-1.738c0.64-0.64,1.224-1.349,1.724-2.114c0.501-0.751,0.932-1.558,1.279-2.392
	c0.348-0.848,0.612-1.724,0.793-2.601c0.181-0.904,0.278-1.823,0.278-2.726c0-0.904-0.097-1.823-0.278-2.712
	C130.071,255.516,129.807,254.64,129.459,253.804z"/>
</svg>